<?xml version="1.0" standalone="no"?>
<!DOCTYPE svg PUBLIC "-//W3C//DTD SVG 20010904//EN"
 "http://www.w3.org/TR/2001/REC-SVG-20010904/DTD/svg10.dtd">
<svg version="1.0" xmlns="http://www.w3.org/2000/svg"
 width="500.000000pt" height="500.000000pt" viewBox="0 0 500.000000 500.000000"
 preserveAspectRatio="xMidYMid meet">
<metadata>
Created by potrace 1.14, written by Peter Selinger 2001-2017
</metadata>
<g transform="translate(0.000000,500.000000) scale(0.100000,-0.100000)"
fill="#000000" stroke="none">
<path d="M0 2500 l0 -2500 2500 0 2500 0 0 2500 0 2500 -2500 0 -2500 0 0
-2500z m1805 1180 c221 -32 402 -119 551 -266 39 -38 87 -94 107 -124 l37 -55
0 213 0 212 193 -2 192 -3 3 -487 2 -488 256 0 256 0 -30 35 c-75 85 -112 186
-112 304 0 201 110 361 283 412 116 35 296 29 452 -16 88 -24 246 -97 294
-134 l24 -19 -57 -101 c-31 -55 -61 -101 -66 -101 -5 0 -29 14 -54 30 -151
102 -379 154 -510 116 -78 -23 -111 -49 -143 -113 -50 -103 -16 -210 107 -335
l76 -78 382 0 382 0 0 -120 0 -120 -255 0 -255 0 34 -47 c50 -70 103 -180 115
-241 27 -132 3 -316 -56 -424 -36 -66 -121 -152 -181 -182 -144 -73 -343 -75
-492 -4 -109 52 -221 206 -255 351 -24 100 -14 421 13 449 7 6 201 -8 209 -15
1 -2 -2 -30 -9 -63 -6 -32 -12 -108 -12 -169 -1 -151 19 -211 93 -285 64 -64
105 -80 203 -80 198 0 312 142 287 355 -13 103 -49 173 -157 303 l-44 52 -389
0 -389 0 0 -550 0 -550 -195 0 -195 0 -2 211 -3 211 -37 -53 c-69 -100 -200
-217 -323 -288 -63 -37 -176 -78 -256 -95 -372 -76 -745 30 -993 282 -166 168
-264 356 -318 605 -31 147 -31 437 0 584 67 311 222 554 455 712 115 78 311
152 450 170 90 12 251 12 332 1z"/>
<path d="M1620 3349 c-343 -39 -597 -284 -664 -639 -19 -98 -22 -286 -6 -386
30 -191 106 -342 234 -469 84 -83 155 -127 268 -166 171 -58 341 -60 517 -4
354 113 568 490 522 922 -24 225 -91 380 -229 525 -153 161 -400 245 -642 217z"/>
</g>
</svg>
